<svg id="Capa_1" enable-background="new 0 0 497 497" height="512" viewBox="0 0 497 497" width="512" xmlns="http://www.w3.org/2000/svg"><g><path d="m442.939 93.561c.013 0-105.983-90-105.983-90-2.628-2.217-6.007-3.561-9.704-3.561l52.833 347h22.5c4.142 0 7.5-3.358 7.5-7.5v-219.5h22.761c8.219 0 15.213-6.44 15.398-14.656.106-4.726-1.98-8.963-5.305-11.783z" fill="#ff9a42"/><path d="m331.923 3.561c-1.265-2.217-2.891-3.561-4.671-3.561-3.697 0-7.076 1.344-9.691 3.561-.013 0-106.009 90-106.009 90-3.312 2.82-5.399 7.057-5.293 11.783.184 8.217 7.18 14.657 15.398 14.657h22.76v219.5c0 4.142 3.358 7.5 7.5 7.5h128.167v-258.476z" fill="#ffb940"/><path d="m402.586 437h-22.5l-45-30 45-30h22.5c4.142 0 7.5 3.358 7.5 7.5v45c0 4.142-3.358 7.5-7.5 7.5z" fill="#ffb940"/><path d="m402.586 497h-22.5l-45-15 45-15h22.5c4.142 0 7.5 3.358 7.5 7.5v15c0 4.142-3.358 7.5-7.5 7.5z" fill="#ffd17e"/><path d="m244.419 474.5v15c0 4.142 3.358 7.5 7.5 7.5h128.167v-30h-128.167c-4.142 0-7.5 3.358-7.5 7.5z" fill="#ffe7ba"/><path d="m244.419 384.5v45c0 4.142 3.358 7.5 7.5 7.5h128.167v-60h-128.167c-4.142 0-7.5 3.358-7.5 7.5z" fill="#ffd17e"/><path d="m184.419 180h-30l30 152.511c0 8.28 6.71 14.5 15 14.5 8.28 0 15-6.22 15-14.5v-122.511c0-16.5-13.5-30-30-30z" fill="#1b74d6"/><path d="m78.752 180h30l-30 152.011c0 8.28-6.72 15-15 15s-15-6.72-15-15v-122.011c0-16.5 13.5-30 30-30z" fill="#54a5ff"/><path d="m184.419 210c0-16.5-13.5-30-30-30h-45.667c-16.5 0-30 13.5-30 30v268.084c0 10.447 8.469 18.916 18.917 18.916 10.447 0 18.917-8.469 18.917-18.916v-146.073h30v146.073c0 10.447 8.469 18.916 18.917 18.916 10.447 0 18.916-8.469 18.916-18.916z" fill="#1e8aff"/><path d="m131.256 60v90c24.853 0 45-20.147 45-45s-20.147-45-45-45z" fill="#1b74d6"/><path d="m146.256 105c0-24.853-6.716-45-15-45-24.853 0-45 20.147-45 45s20.147 45 45 45c8.285 0 15-20.147 15-45z" fill="#1e8aff"/></g></svg>